<?xml version="1.0" encoding="UTF-8" standalone="no"?>
<!DOCTYPE svg PUBLIC "-//W3C//DTD SVG 1.1//EN"
 "http://www.w3.org/Graphics/SVG/1.1/DTD/svg11.dtd">
<!-- Generated by graphviz version 6.0.1 (20220911.1526)
 -->
<!-- Title: dependency&#45;cruiser output Pages: 1 -->
<svg width="786pt" height="259pt"
 viewBox="0.00 0.00 786.00 259.00" xmlns="http://www.w3.org/2000/svg" xmlns:xlink="http://www.w3.org/1999/xlink">
<g id="graph0" class="graph" transform="scale(1 1) rotate(0) translate(4 255)">
<title>dependency&#45;cruiser output</title>
<polygon fill="white" stroke="none" points="-4,4 -4,-255 782,-255 782,4 -4,4"/>
<g id="clust1" class="cluster">
<title>cluster_src</title>
<path fill="#ffffff" stroke="black" stroke-width="2" d="M20,-17C20,-17 704,-17 704,-17 710,-17 716,-23 716,-29 716,-29 716,-231 716,-231 716,-237 710,-243 704,-243 704,-243 20,-243 20,-243 14,-243 8,-237 8,-231 8,-231 8,-29 8,-29 8,-23 14,-17 20,-17"/>
<text text-anchor="middle" x="362" y="-231.8" font-family="Helvetica,sans-Serif" font-weight="bold" font-size="9.00">src</text>
</g>
<g id="clust2" class="cluster">
<title>cluster_src/controllers</title>
<path fill="#ffffff" stroke="black" stroke-width="2" d="M252,-125C252,-125 328,-125 328,-125 334,-125 340,-131 340,-137 340,-137 340,-195 340,-195 340,-201 334,-207 328,-207 328,-207 252,-207 252,-207 246,-207 240,-201 240,-195 240,-195 240,-137 240,-137 240,-131 246,-125 252,-125"/>
<text text-anchor="middle" x="290" y="-195.8" font-family="Helvetica,sans-Serif" font-weight="bold" font-size="9.00">controllers</text>
</g>
<g id="clust3" class="cluster">
<title>cluster_src/entities</title>
<path fill="#ffffff" stroke="black" stroke-width="2" d="M553,-131C553,-131 611,-131 611,-131 617,-131 623,-137 623,-143 623,-143 623,-171 623,-171 623,-177 617,-183 611,-183 611,-183 553,-183 553,-183 547,-183 541,-177 541,-171 541,-171 541,-143 541,-143 541,-137 547,-131 553,-131"/>
<text text-anchor="middle" x="582" y="-171.8" font-family="Helvetica,sans-Serif" font-weight="bold" font-size="9.00">entities</text>
</g>
<g id="clust4" class="cluster">
<title>cluster_src/guards</title>
<path fill="#ffffff" stroke="black" stroke-width="2" d="M255.5,-35C255.5,-35 324.5,-35 324.5,-35 330.5,-35 336.5,-41 336.5,-47 336.5,-47 336.5,-105 336.5,-105 336.5,-111 330.5,-117 324.5,-117 324.5,-117 255.5,-117 255.5,-117 249.5,-117 243.5,-111 243.5,-105 243.5,-105 243.5,-47 243.5,-47 243.5,-41 249.5,-35 255.5,-35"/>
<text text-anchor="middle" x="290" y="-105.8" font-family="Helvetica,sans-Serif" font-weight="bold" font-size="9.00">guards</text>
</g>
<g id="clust5" class="cluster">
<title>cluster_src/routers</title>
<path fill="#ffffff" stroke="black" stroke-width="2" d="M90,-35C90,-35 220,-35 220,-35 226,-35 232,-41 232,-47 232,-47 232,-105 232,-105 232,-111 226,-117 220,-117 220,-117 90,-117 90,-117 84,-117 78,-111 78,-105 78,-105 78,-47 78,-47 78,-41 84,-35 90,-35"/>
<text text-anchor="middle" x="155" y="-105.8" font-family="Helvetica,sans-Serif" font-weight="bold" font-size="9.00">routers</text>
</g>
<g id="clust6" class="cluster">
<title>cluster_src/services</title>
<path fill="#ffffff" stroke="black" stroke-width="2" d="M360,-127C360,-127 513,-127 513,-127 519,-127 525,-133 525,-139 525,-139 525,-167 525,-167 525,-173 519,-179 513,-179 513,-179 360,-179 360,-179 354,-179 348,-173 348,-167 348,-167 348,-139 348,-139 348,-133 354,-127 360,-127"/>
<text text-anchor="middle" x="436.5" y="-167.8" font-family="Helvetica,sans-Serif" font-weight="bold" font-size="9.00">services</text>
</g>
<g id="clust7" class="cluster">
<title>cluster_src/utils</title>
<path fill="#ffffff" stroke="black" stroke-width="2" d="M545,-41C545,-41 696,-41 696,-41 702,-41 708,-47 708,-53 708,-53 708,-111 708,-111 708,-117 702,-123 696,-123 696,-123 545,-123 545,-123 539,-123 533,-117 533,-111 533,-111 533,-53 533,-53 533,-47 539,-41 545,-41"/>
<text text-anchor="middle" x="620.5" y="-111.8" font-family="Helvetica,sans-Serif" font-weight="bold" font-size="9.00">utils</text>
</g>
<!-- path -->
<g id="node1" class="node">
<title>path</title>
<g id="a_node1"><a xlink:title="path">
<path fill="#ffffcc" stroke="grey" d="M772,-51C772,-51 730,-51 730,-51 727,-51 724,-48 724,-45 724,-45 724,-39 724,-39 724,-36 727,-33 730,-33 730,-33 772,-33 772,-33 775,-33 778,-36 778,-39 778,-39 778,-45 778,-45 778,-48 775,-51 772,-51"/>
<text text-anchor="middle" x="751" y="-39.8" font-family="Helvetica,sans-Serif" font-size="9.00" fill="grey">path</text>
</a>
</g>
</g>
<!-- src/app.js -->
<g id="node2" class="node">
<title>src/app.js</title>
<g id="a_node2"><a xlink:href="src/app.js" xlink:title="app.js">
<path fill="#ffffcc" stroke="black" d="M64,-61C64,-61 22,-61 22,-61 19,-61 16,-58 16,-55 16,-55 16,-49 16,-49 16,-46 19,-43 22,-43 22,-43 64,-43 64,-43 67,-43 70,-46 70,-49 70,-49 70,-55 70,-55 70,-58 67,-61 64,-61"/>
<text text-anchor="start" x="30.5" y="-49.8" font-family="Helvetica,sans-Serif" font-size="9.00">app.js</text>
</a>
</g>
</g>
<!-- src/app.js&#45;&gt;path -->
<g id="edge3" class="edge">
<title>src/app.js&#45;&gt;path</title>
<path fill="none" stroke="#000000" stroke-dasharray="5,2" stroke-opacity="0.200000" d="M57.82,-42.82C63.84,-39.1 71.09,-34.99 78,-32 124.54,-11.88 136.8,0 187.5,0 187.5,0 187.5,0 583,0 643.23,0 658.76,-7.26 716,-26 719.66,-27.2 723.44,-28.7 727.1,-30.29"/>
<polygon fill="#000000" fill-opacity="0.200000" stroke="#000000" stroke-opacity="0.200000" points="726.36,-32.26 732.69,-32.85 728.11,-28.44 726.36,-32.26"/>
</g>
<!-- src/routers/router.js -->
<g id="node3" class="node">
<title>src/routers/router.js</title>
<g id="a_node3"><a xlink:href="src/routers/router.js" xlink:title="router.js">
<path fill="#ffffcc" stroke="black" d="M134,-61C134,-61 92,-61 92,-61 89,-61 86,-58 86,-55 86,-55 86,-49 86,-49 86,-46 89,-43 92,-43 92,-43 134,-43 134,-43 137,-43 140,-46 140,-49 140,-49 140,-55 140,-55 140,-58 137,-61 134,-61"/>
<text text-anchor="start" x="96" y="-49.8" font-family="Helvetica,sans-Serif" font-size="9.00">router.js</text>
</a>
</g>
</g>
<!-- src/app.js&#45;&gt;src/routers/router.js -->
<g id="edge1" class="edge">
<title>src/app.js&#45;&gt;src/routers/router.js</title>
<path fill="none" stroke="#000000" stroke-width="2" stroke-opacity="0.200000" d="M70.1,-52C73.12,-52 76.23,-52 79.33,-52"/>
<polygon fill="#000000" fill-opacity="0.200000" stroke="#000000" stroke-width="2" stroke-opacity="0.200000" points="79.64,-54.1 85.64,-52 79.64,-49.9 79.64,-54.1"/>
</g>
<!-- src/utils/database.js -->
<g id="node4" class="node">
<title>src/utils/database.js</title>
<g id="a_node4"><a xlink:href="src/utils/database.js" xlink:title="database.js">
<path fill="#ffffcc" stroke="black" d="M694,-97C694,-97 642,-97 642,-97 639,-97 636,-94 636,-91 636,-91 636,-85 636,-85 636,-82 639,-79 642,-79 642,-79 694,-79 694,-79 697,-79 700,-82 700,-85 700,-85 700,-91 700,-91 700,-94 697,-97 694,-97"/>
<text text-anchor="start" x="644" y="-85.8" font-family="Helvetica,sans-Serif" font-size="9.00">database.js</text>
</a>
</g>
</g>
<!-- src/app.js&#45;&gt;src/utils/database.js -->
<g id="edge2" class="edge">
<title>src/app.js&#45;&gt;src/utils/database.js</title>
<path fill="none" stroke="#000000" stroke-width="2" stroke-opacity="0.200000" d="M46.93,-61.29C58.53,-95.98 104.65,-216 187.5,-216 187.5,-216 187.5,-216 481,-216 545.5,-216 572.78,-226.48 623,-186 649.05,-165 660.2,-125.29 664.54,-103.42"/>
<polygon fill="#000000" fill-opacity="0.200000" stroke="#000000" stroke-width="2" stroke-opacity="0.200000" points="666.65,-103.52 665.67,-97.24 662.52,-102.76 666.65,-103.52"/>
</g>
<!-- src/utils/notFound.js -->
<g id="node11" class="node">
<title>src/utils/notFound.js</title>
<g id="a_node11"><a xlink:href="src/utils/notFound.js" xlink:title="notFound.js">
<path fill="#ffffcc" stroke="black" d="M608.5,-67C608.5,-67 555.5,-67 555.5,-67 552.5,-67 549.5,-64 549.5,-61 549.5,-61 549.5,-55 549.5,-55 549.5,-52 552.5,-49 555.5,-49 555.5,-49 608.5,-49 608.5,-49 611.5,-49 614.5,-52 614.5,-55 614.5,-55 614.5,-61 614.5,-61 614.5,-64 611.5,-67 608.5,-67"/>
<text text-anchor="start" x="557.5" y="-55.8" font-family="Helvetica,sans-Serif" font-size="9.00">notFound.js</text>
</a>
</g>
</g>
<!-- src/routers/router.js&#45;&gt;src/utils/notFound.js -->
<g id="edge11" class="edge">
<title>src/routers/router.js&#45;&gt;src/utils/notFound.js</title>
<path fill="none" stroke="#000000" stroke-width="2" stroke-opacity="0.200000" d="M133.88,-42.99C139.9,-40.64 146.62,-38.38 153,-37 190.86,-28.84 201.29,-33.11 240,-32 284.43,-30.72 295.62,-29.61 340,-32 411.99,-35.87 495.55,-46.2 542.96,-52.62"/>
<polygon fill="#000000" fill-opacity="0.200000" stroke="#000000" stroke-width="2" stroke-opacity="0.200000" points="542.89,-54.73 549.12,-53.46 543.46,-50.57 542.89,-54.73"/>
</g>
<!-- src/routers/authRouter.js -->
<g id="node13" class="node">
<title>src/routers/authRouter.js</title>
<g id="a_node13"><a xlink:href="src/routers/authRouter.js" xlink:title="authRouter.js">
<path fill="#ffffcc" stroke="black" d="M218,-61C218,-61 159,-61 159,-61 156,-61 153,-58 153,-55 153,-55 153,-49 153,-49 153,-46 156,-43 159,-43 159,-43 218,-43 218,-43 221,-43 224,-46 224,-49 224,-49 224,-55 224,-55 224,-58 221,-61 218,-61"/>
<text text-anchor="start" x="161" y="-49.8" font-family="Helvetica,sans-Serif" font-size="9.00">authRouter.js</text>
</a>
</g>
</g>
<!-- src/routers/router.js&#45;&gt;src/routers/authRouter.js -->
<g id="edge12" class="edge">
<title>src/routers/router.js&#45;&gt;src/routers/authRouter.js</title>
<path fill="none" stroke="#000000" stroke-width="2" stroke-opacity="0.200000" d="M140.12,-52C142.31,-52 144.56,-52 146.83,-52"/>
<polygon fill="#000000" fill-opacity="0.200000" stroke="#000000" stroke-width="2" stroke-opacity="0.200000" points="146.85,-54.1 152.85,-52 146.85,-49.9 146.85,-54.1"/>
</g>
<!-- src/routers/userRouter.js -->
<g id="node14" class="node">
<title>src/routers/userRouter.js</title>
<g id="a_node14"><a xlink:href="src/routers/userRouter.js" xlink:title="userRouter.js">
<path fill="#ffffcc" stroke="black" d="M218,-91C218,-91 159,-91 159,-91 156,-91 153,-88 153,-85 153,-85 153,-79 153,-79 153,-76 156,-73 159,-73 159,-73 218,-73 218,-73 221,-73 224,-76 224,-79 224,-79 224,-85 224,-85 224,-88 221,-91 218,-91"/>
<text text-anchor="start" x="161" y="-79.8" font-family="Helvetica,sans-Serif" font-size="9.00">userRouter.js</text>
</a>
</g>
</g>
<!-- src/routers/router.js&#45;&gt;src/routers/userRouter.js -->
<g id="edge13" class="edge">
<title>src/routers/router.js&#45;&gt;src/routers/userRouter.js</title>
<path fill="none" stroke="#000000" stroke-width="2" stroke-opacity="0.200000" d="M136.05,-61C143.4,-64 151.68,-67.38 159.42,-70.54"/>
<polygon fill="#000000" fill-opacity="0.200000" stroke="#000000" stroke-width="2" stroke-opacity="0.200000" points="158.86,-72.58 165.21,-72.9 160.45,-68.69 158.86,-72.58"/>
</g>
<!-- src/utils/database.js&#45;&gt;path -->
<g id="edge20" class="edge">
<title>src/utils/database.js&#45;&gt;path</title>
<path fill="none" stroke="#000000" stroke-dasharray="5,2" stroke-opacity="0.200000" d="M688.99,-78.98C697.46,-74.96 707.35,-70.01 716,-65 721.46,-61.84 727.21,-58.12 732.39,-54.59"/>
<polygon fill="#000000" fill-opacity="0.200000" stroke="#000000" stroke-opacity="0.200000" points="733.61,-56.31 737.36,-51.17 731.22,-52.85 733.61,-56.31"/>
</g>
<!-- src/controllers/authController.js -->
<g id="node5" class="node">
<title>src/controllers/authController.js</title>
<g id="a_node5"><a xlink:href="src/controllers/authController.js" xlink:title="authController.js">
<path fill="#ffffcc" stroke="black" d="M326,-151C326,-151 254,-151 254,-151 251,-151 248,-148 248,-145 248,-145 248,-139 248,-139 248,-136 251,-133 254,-133 254,-133 326,-133 326,-133 329,-133 332,-136 332,-139 332,-139 332,-145 332,-145 332,-148 329,-151 326,-151"/>
<text text-anchor="start" x="256" y="-139.8" font-family="Helvetica,sans-Serif" font-size="9.00">authController.js</text>
</a>
</g>
</g>
<!-- src/services/authService.js -->
<g id="node6" class="node">
<title>src/services/authService.js</title>
<g id="a_node6"><a xlink:href="src/services/authService.js" xlink:title="authService.js">
<path fill="#ffffcc" stroke="black" d="M424,-153C424,-153 362,-153 362,-153 359,-153 356,-150 356,-147 356,-147 356,-141 356,-141 356,-138 359,-135 362,-135 362,-135 424,-135 424,-135 427,-135 430,-138 430,-141 430,-141 430,-147 430,-147 430,-150 427,-153 424,-153"/>
<text text-anchor="start" x="364" y="-141.8" font-family="Helvetica,sans-Serif" font-size="9.00">authService.js</text>
</a>
</g>
</g>
<!-- src/controllers/authController.js&#45;&gt;src/services/authService.js -->
<g id="edge4" class="edge">
<title>src/controllers/authController.js&#45;&gt;src/services/authService.js</title>
<path fill="none" stroke="#000000" stroke-width="2" stroke-opacity="0.200000" d="M332.08,-142.81C337.86,-142.93 343.8,-143.05 349.6,-143.16"/>
<polygon fill="#000000" fill-opacity="0.200000" stroke="#000000" stroke-width="2" stroke-opacity="0.200000" points="349.78,-145.26 355.82,-143.28 349.86,-141.07 349.78,-145.26"/>
</g>
<!-- src/services/userService.js -->
<g id="node8" class="node">
<title>src/services/userService.js</title>
<g id="a_node8"><a xlink:href="src/services/userService.js" xlink:title="userService.js">
<path fill="#ffffcc" stroke="black" d="M511,-153C511,-153 449,-153 449,-153 446,-153 443,-150 443,-147 443,-147 443,-141 443,-141 443,-138 446,-135 449,-135 449,-135 511,-135 511,-135 514,-135 517,-138 517,-141 517,-141 517,-147 517,-147 517,-150 514,-153 511,-153"/>
<text text-anchor="start" x="451" y="-141.8" font-family="Helvetica,sans-Serif" font-size="9.00">userService.js</text>
</a>
</g>
</g>
<!-- src/services/authService.js&#45;&gt;src/services/userService.js -->
<g id="edge17" class="edge">
<title>src/services/authService.js&#45;&gt;src/services/userService.js</title>
<path fill="none" stroke="#000000" stroke-width="2" stroke-opacity="0.200000" d="M430.05,-144C432.31,-144 434.59,-144 436.87,-144"/>
<polygon fill="#000000" fill-opacity="0.200000" stroke="#000000" stroke-width="2" stroke-opacity="0.200000" points="436.9,-146.1 442.9,-144 436.9,-141.9 436.9,-146.1"/>
</g>
<!-- src/controllers/userController.js -->
<g id="node7" class="node">
<title>src/controllers/userController.js</title>
<g id="a_node7"><a xlink:href="src/controllers/userController.js" xlink:title="userController.js">
<path fill="#ffffcc" stroke="black" d="M326,-181C326,-181 254,-181 254,-181 251,-181 248,-178 248,-175 248,-175 248,-169 248,-169 248,-166 251,-163 254,-163 254,-163 326,-163 326,-163 329,-163 332,-166 332,-169 332,-169 332,-175 332,-175 332,-178 329,-181 326,-181"/>
<text text-anchor="start" x="256" y="-169.8" font-family="Helvetica,sans-Serif" font-size="9.00">userController.js</text>
</a>
</g>
</g>
<!-- src/controllers/userController.js&#45;&gt;src/services/userService.js -->
<g id="edge5" class="edge">
<title>src/controllers/userController.js&#45;&gt;src/services/userService.js</title>
<path fill="none" stroke="#000000" stroke-width="2" stroke-opacity="0.200000" d="M332.07,-170.36C359.91,-168.71 397.43,-165.44 430,-159 435.58,-157.9 441.42,-156.41 447.05,-154.8"/>
<polygon fill="#000000" fill-opacity="0.200000" stroke="#000000" stroke-width="2" stroke-opacity="0.200000" points="447.9,-156.74 453.06,-153.02 446.71,-152.71 447.9,-156.74"/>
</g>
<!-- src/entities/userEntity.js -->
<g id="node9" class="node">
<title>src/entities/userEntity.js</title>
<g id="a_node9"><a xlink:href="src/entities/userEntity.js" xlink:title="userEntity.js">
<path fill="#ffffcc" stroke="black" d="M609,-157C609,-157 555,-157 555,-157 552,-157 549,-154 549,-151 549,-151 549,-145 549,-145 549,-142 552,-139 555,-139 555,-139 609,-139 609,-139 612,-139 615,-142 615,-145 615,-145 615,-151 615,-151 615,-154 612,-157 609,-157"/>
<text text-anchor="start" x="557" y="-145.8" font-family="Helvetica,sans-Serif" font-size="9.00">userEntity.js</text>
</a>
</g>
</g>
<!-- src/services/userService.js&#45;&gt;src/entities/userEntity.js -->
<g id="edge18" class="edge">
<title>src/services/userService.js&#45;&gt;src/entities/userEntity.js</title>
<path fill="none" stroke="#000000" stroke-width="2" stroke-opacity="0.200000" d="M517.1,-145.44C525.39,-145.78 534.24,-146.13 542.62,-146.46"/>
<polygon fill="#000000" fill-opacity="0.200000" stroke="#000000" stroke-width="2" stroke-opacity="0.200000" points="542.85,-148.58 548.93,-146.72 543.02,-144.38 542.85,-148.58"/>
</g>
<!-- src/utils/sessionCount.js -->
<g id="node15" class="node">
<title>src/utils/sessionCount.js</title>
<g id="a_node15"><a xlink:href="src/utils/sessionCount.js" xlink:title="sessionCount.js">
<path fill="#ffffcc" stroke="black" d="M617,-97C617,-97 547,-97 547,-97 544,-97 541,-94 541,-91 541,-91 541,-85 541,-85 541,-82 544,-79 547,-79 547,-79 617,-79 617,-79 620,-79 623,-82 623,-85 623,-85 623,-91 623,-91 623,-94 620,-97 617,-97"/>
<text text-anchor="start" x="549" y="-85.8" font-family="Helvetica,sans-Serif" font-size="9.00">sessionCount.js</text>
</a>
</g>
</g>
<!-- src/services/userService.js&#45;&gt;src/utils/sessionCount.js -->
<g id="edge19" class="edge">
<title>src/services/userService.js&#45;&gt;src/utils/sessionCount.js</title>
<path fill="none" stroke="#000000" stroke-width="2" stroke-opacity="0.200000" d="M497.51,-134.75C514.4,-125.29 540.73,-110.55 559.3,-100.15"/>
<polygon fill="#000000" fill-opacity="0.200000" stroke="#000000" stroke-width="2" stroke-opacity="0.200000" points="560.59,-101.84 564.79,-97.08 558.53,-98.17 560.59,-101.84"/>
</g>
<!-- src/entities/userEntity.js&#45;&gt;src/utils/database.js -->
<g id="edge6" class="edge">
<title>src/entities/userEntity.js&#45;&gt;src/utils/database.js</title>
<path fill="none" stroke="#000000" stroke-width="2" stroke-opacity="0.200000" d="M601.4,-138.92C608.36,-135.22 616.23,-130.71 623,-126 633.57,-118.65 644.53,-109.19 652.86,-101.55"/>
<polygon fill="#000000" fill-opacity="0.200000" stroke="#000000" stroke-width="2" stroke-opacity="0.200000" points="654.73,-102.69 657.69,-97.06 651.87,-99.61 654.73,-102.69"/>
</g>
<!-- src/guards/adminGuard.js -->
<g id="node10" class="node">
<title>src/guards/adminGuard.js</title>
<g id="a_node10"><a xlink:href="src/guards/adminGuard.js" xlink:title="adminGuard.js">
<path fill="#ffffcc" stroke="black" d="M322.5,-91C322.5,-91 257.5,-91 257.5,-91 254.5,-91 251.5,-88 251.5,-85 251.5,-85 251.5,-79 251.5,-79 251.5,-76 254.5,-73 257.5,-73 257.5,-73 322.5,-73 322.5,-73 325.5,-73 328.5,-76 328.5,-79 328.5,-79 328.5,-85 328.5,-85 328.5,-88 325.5,-91 322.5,-91"/>
<text text-anchor="start" x="259.5" y="-79.8" font-family="Helvetica,sans-Serif" font-size="9.00">adminGuard.js</text>
</a>
</g>
</g>
<!-- src/guards/adminGuard.js&#45;&gt;path -->
<g id="edge8" class="edge">
<title>src/guards/adminGuard.js&#45;&gt;path</title>
<path fill="none" stroke="#000000" stroke-dasharray="5,2" stroke-opacity="0.200000" d="M320.83,-72.88C372.82,-57.01 474.95,-26 479,-26 479,-26 479,-26 583,-26 630.02,-26 684.16,-32.36 717.73,-37.06"/>
<polygon fill="#000000" fill-opacity="0.200000" stroke="#000000" stroke-opacity="0.200000" points="717.52,-39.16 723.75,-37.92 718.11,-35 717.52,-39.16"/>
</g>
<!-- src/guards/adminGuard.js&#45;&gt;src/utils/notFound.js -->
<g id="edge7" class="edge">
<title>src/guards/adminGuard.js&#45;&gt;src/utils/notFound.js</title>
<path fill="none" stroke="#000000" stroke-width="2" stroke-opacity="0.200000" d="M328.62,-78.89C384.1,-74.3 487.31,-65.75 543.01,-61.14"/>
<polygon fill="#000000" fill-opacity="0.200000" stroke="#000000" stroke-width="2" stroke-opacity="0.200000" points="543.43,-63.22 549.24,-60.63 543.08,-59.03 543.43,-63.22"/>
</g>
<!-- src/utils/notFound.js&#45;&gt;path -->
<g id="edge21" class="edge">
<title>src/utils/notFound.js&#45;&gt;path</title>
<path fill="none" stroke="#000000" stroke-dasharray="5,2" stroke-opacity="0.200000" d="M614.8,-54.95C644.31,-52.13 688.02,-47.94 717.69,-45.1"/>
<polygon fill="#000000" fill-opacity="0.200000" stroke="#000000" stroke-opacity="0.200000" points="718.03,-47.17 723.8,-44.51 717.63,-42.99 718.03,-47.17"/>
</g>
<!-- src/guards/authGuard.js -->
<g id="node12" class="node">
<title>src/guards/authGuard.js</title>
<g id="a_node12"><a xlink:href="src/guards/authGuard.js" xlink:title="authGuard.js">
<path fill="#ffffcc" stroke="black" d="M318.5,-61C318.5,-61 261.5,-61 261.5,-61 258.5,-61 255.5,-58 255.5,-55 255.5,-55 255.5,-49 255.5,-49 255.5,-46 258.5,-43 261.5,-43 261.5,-43 318.5,-43 318.5,-43 321.5,-43 324.5,-46 324.5,-49 324.5,-49 324.5,-55 324.5,-55 324.5,-58 321.5,-61 318.5,-61"/>
<text text-anchor="start" x="263.5" y="-49.8" font-family="Helvetica,sans-Serif" font-size="9.00">authGuard.js</text>
</a>
</g>
</g>
<!-- src/routers/authRouter.js&#45;&gt;src/controllers/authController.js -->
<g id="edge9" class="edge">
<title>src/routers/authRouter.js&#45;&gt;src/controllers/authController.js</title>
<path fill="none" stroke="#000000" stroke-width="2" stroke-opacity="0.200000" d="M224.15,-60.36C227.11,-62.16 229.81,-64.35 232,-67 247.18,-85.36 225.6,-101.03 240,-120 242.97,-123.92 246.8,-127.15 251,-129.82"/>
<polygon fill="#000000" fill-opacity="0.200000" stroke="#000000" stroke-width="2" stroke-opacity="0.200000" points="250.24,-131.8 256.49,-132.91 252.29,-128.14 250.24,-131.8"/>
</g>
<!-- src/routers/authRouter.js&#45;&gt;src/guards/authGuard.js -->
<g id="edge10" class="edge">
<title>src/routers/authRouter.js&#45;&gt;src/guards/authGuard.js</title>
<path fill="none" stroke="#000000" stroke-width="2" stroke-opacity="0.200000" d="M224.02,-52C232.07,-52 240.71,-52 248.98,-52"/>
<polygon fill="#000000" fill-opacity="0.200000" stroke="#000000" stroke-width="2" stroke-opacity="0.200000" points="249.21,-54.1 255.21,-52 249.21,-49.9 249.21,-54.1"/>
</g>
<!-- src/routers/userRouter.js&#45;&gt;src/controllers/userController.js -->
<g id="edge14" class="edge">
<title>src/routers/userRouter.js&#45;&gt;src/controllers/userController.js</title>
<path fill="none" stroke="#000000" stroke-width="2" stroke-opacity="0.200000" d="M224.16,-88.64C227.12,-90.32 229.81,-92.41 232,-95 249.92,-116.23 222.08,-135.77 240,-157 240.82,-157.97 241.7,-158.88 242.63,-159.73"/>
<polygon fill="#000000" fill-opacity="0.200000" stroke="#000000" stroke-width="2" stroke-opacity="0.200000" points="241.6,-161.59 247.66,-163.51 244.13,-158.23 241.6,-161.59"/>
</g>
<!-- src/routers/userRouter.js&#45;&gt;src/guards/adminGuard.js -->
<g id="edge15" class="edge">
<title>src/routers/userRouter.js&#45;&gt;src/guards/adminGuard.js</title>
<path fill="none" stroke="#000000" stroke-width="2" stroke-opacity="0.200000" d="M224.02,-82C230.81,-82 238.02,-82 245.07,-82"/>
<polygon fill="#000000" fill-opacity="0.200000" stroke="#000000" stroke-width="2" stroke-opacity="0.200000" points="245.48,-84.1 251.48,-82 245.48,-79.9 245.48,-84.1"/>
</g>
<!-- src/routers/userRouter.js&#45;&gt;src/guards/authGuard.js -->
<g id="edge16" class="edge">
<title>src/routers/userRouter.js&#45;&gt;src/guards/authGuard.js</title>
<path fill="none" stroke="#000000" stroke-width="2" stroke-opacity="0.200000" d="M219.35,-73C229.88,-69.82 241.84,-66.22 252.83,-62.91"/>
<polygon fill="#000000" fill-opacity="0.200000" stroke="#000000" stroke-width="2" stroke-opacity="0.200000" points="253.69,-64.84 258.82,-61.1 252.47,-60.82 253.69,-64.84"/>
</g>
<!-- src/utils/sessionCount.js&#45;&gt;src/utils/database.js -->
<g id="edge22" class="edge">
<title>src/utils/sessionCount.js&#45;&gt;src/utils/database.js</title>
<path fill="none" stroke="#000000" stroke-width="2" stroke-opacity="0.200000" d="M623.03,-88C625.14,-88 627.26,-88 629.37,-88"/>
<polygon fill="#000000" fill-opacity="0.200000" stroke="#000000" stroke-width="2" stroke-opacity="0.200000" points="629.62,-90.1 635.62,-88 629.62,-85.9 629.62,-90.1"/>
</g>
</g>
</svg>
