<?xml version="1.0" encoding="UTF-8" standalone="no"?>
<!DOCTYPE svg PUBLIC "-//W3C//DTD SVG 1.1//EN"
 "http://www.w3.org/Graphics/SVG/1.1/DTD/svg11.dtd">
<!-- Generated by graphviz version 6.0.1 (20220911.1526)
 -->
<!-- Title: dependency&#45;cruiser output Pages: 1 -->
<svg width="742pt" height="270pt"
 viewBox="0.00 0.00 742.00 270.00" xmlns="http://www.w3.org/2000/svg" xmlns:xlink="http://www.w3.org/1999/xlink">
<g id="graph0" class="graph" transform="scale(1 1) rotate(0) translate(4 266)">
<title>dependency&#45;cruiser output</title>
<polygon fill="white" stroke="none" points="-4,4 -4,-266 738,-266 738,4 -4,4"/>
<g id="clust1" class="cluster">
<title>cluster_src</title>
<path fill="#ffffff" stroke="black" stroke-width="2" d="M20,-8C20,-8 660,-8 660,-8 666,-8 672,-14 672,-20 672,-20 672,-242 672,-242 672,-248 666,-254 660,-254 660,-254 20,-254 20,-254 14,-254 8,-248 8,-242 8,-242 8,-20 8,-20 8,-14 14,-8 20,-8"/>
<text text-anchor="middle" x="340" y="-242.8" font-family="Helvetica,sans-Serif" font-weight="bold" font-size="9.00">src</text>
</g>
<g id="clust2" class="cluster">
<title>cluster_src/controllers</title>
<path fill="#ffffff" stroke="black" stroke-width="2" d="M196,-106C196,-106 278,-106 278,-106 284,-106 290,-112 290,-118 290,-118 290,-206 290,-206 290,-212 284,-218 278,-218 278,-218 196,-218 196,-218 190,-218 184,-212 184,-206 184,-206 184,-118 184,-118 184,-112 190,-106 196,-106"/>
<text text-anchor="middle" x="237" y="-206.8" font-family="Helvetica,sans-Serif" font-weight="bold" font-size="9.00">controllers</text>
</g>
<g id="clust3" class="cluster">
<title>cluster_src/entities</title>
<path fill="#ffffff" stroke="black" stroke-width="2" d="M506,-144C506,-144 570,-144 570,-144 576,-144 582,-150 582,-156 582,-156 582,-214 582,-214 582,-220 576,-226 570,-226 570,-226 506,-226 506,-226 500,-226 494,-220 494,-214 494,-214 494,-156 494,-156 494,-150 500,-144 506,-144"/>
<text text-anchor="middle" x="538" y="-214.8" font-family="Helvetica,sans-Serif" font-weight="bold" font-size="9.00">entities</text>
</g>
<g id="clust4" class="cluster">
<title>cluster_src/guards</title>
<path fill="#ffffff" stroke="black" stroke-width="2" d="M202.5,-16C202.5,-16 271.5,-16 271.5,-16 277.5,-16 283.5,-22 283.5,-28 283.5,-28 283.5,-86 283.5,-86 283.5,-92 277.5,-98 271.5,-98 271.5,-98 202.5,-98 202.5,-98 196.5,-98 190.5,-92 190.5,-86 190.5,-86 190.5,-28 190.5,-28 190.5,-22 196.5,-16 202.5,-16"/>
<text text-anchor="middle" x="237" y="-86.8" font-family="Helvetica,sans-Serif" font-weight="bold" font-size="9.00">guards</text>
</g>
<g id="clust5" class="cluster">
<title>cluster_src/routers</title>
<path fill="#ffffff" stroke="black" stroke-width="2" d="M28,-46C28,-46 164,-46 164,-46 170,-46 176,-52 176,-58 176,-58 176,-146 176,-146 176,-152 170,-158 164,-158 164,-158 28,-158 28,-158 22,-158 16,-152 16,-146 16,-146 16,-58 16,-58 16,-52 22,-46 28,-46"/>
<text text-anchor="middle" x="96" y="-146.8" font-family="Helvetica,sans-Serif" font-weight="bold" font-size="9.00">routers</text>
</g>
<g id="clust6" class="cluster">
<title>cluster_src/services</title>
<path fill="#ffffff" stroke="black" stroke-width="2" d="M310,-122C310,-122 469,-122 469,-122 475,-122 481,-128 481,-134 481,-134 481,-192 481,-192 481,-198 475,-204 469,-204 469,-204 310,-204 310,-204 304,-204 298,-198 298,-192 298,-192 298,-134 298,-134 298,-128 304,-122 310,-122"/>
<text text-anchor="middle" x="389.5" y="-192.8" font-family="Helvetica,sans-Serif" font-weight="bold" font-size="9.00">services</text>
</g>
<g id="clust7" class="cluster">
<title>cluster_src/utils</title>
<path fill="#ffffff" stroke="black" stroke-width="2" d="M501,-54C501,-54 652,-54 652,-54 658,-54 664,-60 664,-66 664,-66 664,-124 664,-124 664,-130 658,-136 652,-136 652,-136 501,-136 501,-136 495,-136 489,-130 489,-124 489,-124 489,-66 489,-66 489,-60 495,-54 501,-54"/>
<text text-anchor="middle" x="576.5" y="-124.8" font-family="Helvetica,sans-Serif" font-weight="bold" font-size="9.00">utils</text>
</g>
<!-- path -->
<g id="node1" class="node">
<title>path</title>
<g id="a_node1"><a xlink:title="path">
<path fill="#ffffcc" stroke="grey" d="M728,-80C728,-80 686,-80 686,-80 683,-80 680,-77 680,-74 680,-74 680,-68 680,-68 680,-65 683,-62 686,-62 686,-62 728,-62 728,-62 731,-62 734,-65 734,-68 734,-68 734,-74 734,-74 734,-77 731,-80 728,-80"/>
<text text-anchor="middle" x="707" y="-68.8" font-family="Helvetica,sans-Serif" font-size="9.00" fill="grey">path</text>
</a>
</g>
</g>
<!-- src/controllers/authController.js -->
<g id="node2" class="node">
<title>src/controllers/authController.js</title>
<g id="a_node2"><a xlink:href="src/controllers/authController.js" xlink:title="authController.js">
<path fill="#ffffcc" stroke="black" d="M273,-192C273,-192 201,-192 201,-192 198,-192 195,-189 195,-186 195,-186 195,-180 195,-180 195,-177 198,-174 201,-174 201,-174 273,-174 273,-174 276,-174 279,-177 279,-180 279,-180 279,-186 279,-186 279,-189 276,-192 273,-192"/>
<text text-anchor="start" x="203" y="-180.8" font-family="Helvetica,sans-Serif" font-size="9.00">authController.js</text>
</a>
</g>
</g>
<!-- src/services/authService.js -->
<g id="node3" class="node">
<title>src/services/authService.js</title>
<g id="a_node3"><a xlink:href="src/services/authService.js" xlink:title="authService.js">
<path fill="#ffffcc" stroke="black" d="M377,-178C377,-178 315,-178 315,-178 312,-178 309,-175 309,-172 309,-172 309,-166 309,-166 309,-163 312,-160 315,-160 315,-160 377,-160 377,-160 380,-160 383,-163 383,-166 383,-166 383,-172 383,-172 383,-175 380,-178 377,-178"/>
<text text-anchor="start" x="317" y="-166.8" font-family="Helvetica,sans-Serif" font-size="9.00">authService.js</text>
</a>
</g>
</g>
<!-- src/controllers/authController.js&#45;&gt;src/services/authService.js -->
<g id="edge1" class="edge">
<title>src/controllers/authController.js&#45;&gt;src/services/authService.js</title>
<path fill="none" stroke="#000000" stroke-width="2" stroke-opacity="0.200000" d="M279.06,-177.63C286.71,-176.63 294.71,-175.58 302.4,-174.57"/>
<polygon fill="#000000" fill-opacity="0.200000" stroke="#000000" stroke-width="2" stroke-opacity="0.200000" points="303.09,-176.6 308.77,-173.74 302.54,-172.44 303.09,-176.6"/>
</g>
<!-- src/services/userService.js -->
<g id="node7" class="node">
<title>src/services/userService.js</title>
<g id="a_node7"><a xlink:href="src/services/userService.js" xlink:title="userService.js">
<path fill="#ffffcc" stroke="black" d="M467,-159C467,-159 405,-159 405,-159 402,-159 399,-156 399,-153 399,-153 399,-147 399,-147 399,-144 402,-141 405,-141 405,-141 467,-141 467,-141 470,-141 473,-144 473,-147 473,-147 473,-153 473,-153 473,-156 470,-159 467,-159"/>
<text text-anchor="start" x="407" y="-147.8" font-family="Helvetica,sans-Serif" font-size="9.00">userService.js</text>
</a>
</g>
</g>
<!-- src/services/authService.js&#45;&gt;src/services/userService.js -->
<g id="edge20" class="edge">
<title>src/services/authService.js&#45;&gt;src/services/userService.js</title>
<path fill="none" stroke="#000000" stroke-width="2" stroke-opacity="0.200000" d="M383.05,-161.22C386.31,-160.51 389.63,-159.79 392.94,-159.08"/>
<polygon fill="#000000" fill-opacity="0.200000" stroke="#000000" stroke-width="2" stroke-opacity="0.200000" points="393.45,-161.12 398.87,-157.8 392.56,-157.02 393.45,-161.12"/>
</g>
<!-- src/controllers/reportController.js -->
<g id="node4" class="node">
<title>src/controllers/reportController.js</title>
<g id="a_node4"><a xlink:href="src/controllers/reportController.js" xlink:title="reportController.js">
<path fill="#ffffcc" stroke="black" d="M276,-162C276,-162 198,-162 198,-162 195,-162 192,-159 192,-156 192,-156 192,-150 192,-150 192,-147 195,-144 198,-144 198,-144 276,-144 276,-144 279,-144 282,-147 282,-150 282,-150 282,-156 282,-156 282,-159 279,-162 276,-162"/>
<text text-anchor="start" x="200" y="-150.8" font-family="Helvetica,sans-Serif" font-size="9.00">reportController.js</text>
</a>
</g>
</g>
<!-- src/services/reportService.js -->
<g id="node5" class="node">
<title>src/services/reportService.js</title>
<g id="a_node5"><a xlink:href="src/services/reportService.js" xlink:title="reportService.js">
<path fill="#ffffcc" stroke="black" d="M380,-148C380,-148 312,-148 312,-148 309,-148 306,-145 306,-142 306,-142 306,-136 306,-136 306,-133 309,-130 312,-130 312,-130 380,-130 380,-130 383,-130 386,-133 386,-136 386,-136 386,-142 386,-142 386,-145 383,-148 380,-148"/>
<text text-anchor="start" x="314" y="-136.8" font-family="Helvetica,sans-Serif" font-size="9.00">reportService.js</text>
</a>
</g>
</g>
<!-- src/controllers/reportController.js&#45;&gt;src/services/reportService.js -->
<g id="edge2" class="edge">
<title>src/controllers/reportController.js&#45;&gt;src/services/reportService.js</title>
<path fill="none" stroke="#000000" stroke-width="2" stroke-opacity="0.200000" d="M282.14,-147.22C287.89,-146.47 293.79,-145.7 299.56,-144.95"/>
<polygon fill="#000000" fill-opacity="0.200000" stroke="#000000" stroke-width="2" stroke-opacity="0.200000" points="300.08,-147 305.76,-144.13 299.53,-142.83 300.08,-147"/>
</g>
<!-- src/entities/reportEntity.js -->
<g id="node8" class="node">
<title>src/entities/reportEntity.js</title>
<g id="a_node8"><a xlink:href="src/entities/reportEntity.js" xlink:title="reportEntity.js">
<path fill="#ffffcc" stroke="black" d="M568,-200C568,-200 508,-200 508,-200 505,-200 502,-197 502,-194 502,-194 502,-188 502,-188 502,-185 505,-182 508,-182 508,-182 568,-182 568,-182 571,-182 574,-185 574,-188 574,-188 574,-194 574,-194 574,-197 571,-200 568,-200"/>
<text text-anchor="start" x="510" y="-188.8" font-family="Helvetica,sans-Serif" font-size="9.00">reportEntity.js</text>
</a>
</g>
</g>
<!-- src/services/reportService.js&#45;&gt;src/entities/reportEntity.js -->
<g id="edge21" class="edge">
<title>src/services/reportService.js&#45;&gt;src/entities/reportEntity.js</title>
<path fill="none" stroke="#000000" stroke-width="2" stroke-opacity="0.200000" d="M373.99,-148.01C378.12,-149.78 382.25,-151.78 386,-154 392.51,-157.86 392.17,-161.75 399,-165 429.39,-179.47 467.14,-185.89 495.47,-188.74"/>
<polygon fill="#000000" fill-opacity="0.200000" stroke="#000000" stroke-width="2" stroke-opacity="0.200000" points="495.56,-190.86 501.73,-189.33 495.95,-186.68 495.56,-190.86"/>
</g>
<!-- src/controllers/userController.js -->
<g id="node6" class="node">
<title>src/controllers/userController.js</title>
<g id="a_node6"><a xlink:href="src/controllers/userController.js" xlink:title="userController.js">
<path fill="#ffffcc" stroke="black" d="M273,-132C273,-132 201,-132 201,-132 198,-132 195,-129 195,-126 195,-126 195,-120 195,-120 195,-117 198,-114 201,-114 201,-114 273,-114 273,-114 276,-114 279,-117 279,-120 279,-120 279,-126 279,-126 279,-129 276,-132 273,-132"/>
<text text-anchor="start" x="203" y="-120.8" font-family="Helvetica,sans-Serif" font-size="9.00">userController.js</text>
</a>
</g>
</g>
<!-- src/controllers/userController.js&#45;&gt;src/services/userService.js -->
<g id="edge3" class="edge">
<title>src/controllers/userController.js&#45;&gt;src/services/userService.js</title>
<path fill="none" stroke="#000000" stroke-width="2" stroke-opacity="0.200000" d="M279.18,-118.08C309.25,-115.73 350.75,-115.1 386,-124 396.83,-126.73 407.9,-132.32 416.77,-137.62"/>
<polygon fill="#000000" fill-opacity="0.200000" stroke="#000000" stroke-width="2" stroke-opacity="0.200000" points="415.78,-139.48 421.99,-140.86 417.99,-135.91 415.78,-139.48"/>
</g>
<!-- src/entities/userEntity.js -->
<g id="node10" class="node">
<title>src/entities/userEntity.js</title>
<g id="a_node10"><a xlink:href="src/entities/userEntity.js" xlink:title="userEntity.js">
<path fill="#ffffcc" stroke="black" d="M565,-170C565,-170 511,-170 511,-170 508,-170 505,-167 505,-164 505,-164 505,-158 505,-158 505,-155 508,-152 511,-152 511,-152 565,-152 565,-152 568,-152 571,-155 571,-158 571,-158 571,-164 571,-164 571,-167 568,-170 565,-170"/>
<text text-anchor="start" x="513" y="-158.8" font-family="Helvetica,sans-Serif" font-size="9.00">userEntity.js</text>
</a>
</g>
</g>
<!-- src/services/userService.js&#45;&gt;src/entities/userEntity.js -->
<g id="edge22" class="edge">
<title>src/services/userService.js&#45;&gt;src/entities/userEntity.js</title>
<path fill="none" stroke="#000000" stroke-width="2" stroke-opacity="0.200000" d="M473.1,-153.97C481.39,-154.88 490.24,-155.86 498.62,-156.78"/>
<polygon fill="#000000" fill-opacity="0.200000" stroke="#000000" stroke-width="2" stroke-opacity="0.200000" points="498.74,-158.9 504.93,-157.47 499.2,-154.73 498.74,-158.9"/>
</g>
<!-- src/utils/sessionCount.js -->
<g id="node18" class="node">
<title>src/utils/sessionCount.js</title>
<g id="a_node18"><a xlink:href="src/utils/sessionCount.js" xlink:title="sessionCount.js">
<path fill="#ffffcc" stroke="black" d="M573,-110C573,-110 503,-110 503,-110 500,-110 497,-107 497,-104 497,-104 497,-98 497,-98 497,-95 500,-92 503,-92 503,-92 573,-92 573,-92 576,-92 579,-95 579,-98 579,-98 579,-104 579,-104 579,-107 576,-110 573,-110"/>
<text text-anchor="start" x="505" y="-98.8" font-family="Helvetica,sans-Serif" font-size="9.00">sessionCount.js</text>
</a>
</g>
</g>
<!-- src/services/userService.js&#45;&gt;src/utils/sessionCount.js -->
<g id="edge23" class="edge">
<title>src/services/userService.js&#45;&gt;src/utils/sessionCount.js</title>
<path fill="none" stroke="#000000" stroke-width="2" stroke-opacity="0.200000" d="M455.81,-140.78C471.97,-132.86 495.38,-121.39 512.91,-112.8"/>
<polygon fill="#000000" fill-opacity="0.200000" stroke="#000000" stroke-width="2" stroke-opacity="0.200000" points="514.15,-114.54 518.61,-110.01 512.3,-110.76 514.15,-114.54"/>
</g>
<!-- src/utils/database.js -->
<g id="node9" class="node">
<title>src/utils/database.js</title>
<g id="a_node9"><a xlink:href="src/utils/database.js" xlink:title="database.js">
<path fill="#ffffcc" stroke="black" d="M650,-110C650,-110 598,-110 598,-110 595,-110 592,-107 592,-104 592,-104 592,-98 592,-98 592,-95 595,-92 598,-92 598,-92 650,-92 650,-92 653,-92 656,-95 656,-98 656,-98 656,-104 656,-104 656,-107 653,-110 650,-110"/>
<text text-anchor="start" x="600" y="-98.8" font-family="Helvetica,sans-Serif" font-size="9.00">database.js</text>
</a>
</g>
</g>
<!-- src/entities/reportEntity.js&#45;&gt;src/utils/database.js -->
<g id="edge4" class="edge">
<title>src/entities/reportEntity.js&#45;&gt;src/utils/database.js</title>
<path fill="none" stroke="#000000" stroke-width="2" stroke-opacity="0.200000" d="M573.17,-181.8C576.33,-180.17 579.35,-178.25 582,-176 600.95,-159.93 612.65,-132.8 618.48,-115.95"/>
<polygon fill="#000000" fill-opacity="0.200000" stroke="#000000" stroke-width="2" stroke-opacity="0.200000" points="620.48,-116.6 620.36,-110.25 616.49,-115.28 620.48,-116.6"/>
</g>
<!-- src/utils/database.js&#45;&gt;path -->
<g id="edge24" class="edge">
<title>src/utils/database.js&#45;&gt;path</title>
<path fill="none" stroke="#000000" stroke-dasharray="5,2" stroke-opacity="0.200000" d="M649.3,-92C657.56,-88.94 666.89,-85.49 675.56,-82.28"/>
<polygon fill="#000000" fill-opacity="0.200000" stroke="#000000" stroke-opacity="0.200000" points="676.54,-84.15 681.43,-80.1 675.08,-80.21 676.54,-84.15"/>
</g>
<!-- src/entities/userEntity.js&#45;&gt;src/utils/database.js -->
<g id="edge5" class="edge">
<title>src/entities/userEntity.js&#45;&gt;src/utils/database.js</title>
<path fill="none" stroke="#000000" stroke-width="2" stroke-opacity="0.200000" d="M559.79,-151.8C567.06,-148.21 575.13,-143.81 582,-139 592.14,-131.91 602.36,-122.45 610.05,-114.75"/>
<polygon fill="#000000" fill-opacity="0.200000" stroke="#000000" stroke-width="2" stroke-opacity="0.200000" points="611.79,-115.97 614.49,-110.21 608.79,-113.03 611.79,-115.97"/>
</g>
<!-- src/guards/adminGuard.js -->
<g id="node11" class="node">
<title>src/guards/adminGuard.js</title>
<g id="a_node11"><a xlink:href="src/guards/adminGuard.js" xlink:title="adminGuard.js">
<path fill="#ffffcc" stroke="black" d="M269.5,-42C269.5,-42 204.5,-42 204.5,-42 201.5,-42 198.5,-39 198.5,-36 198.5,-36 198.5,-30 198.5,-30 198.5,-27 201.5,-24 204.5,-24 204.5,-24 269.5,-24 269.5,-24 272.5,-24 275.5,-27 275.5,-30 275.5,-30 275.5,-36 275.5,-36 275.5,-39 272.5,-42 269.5,-42"/>
<text text-anchor="start" x="206.5" y="-30.8" font-family="Helvetica,sans-Serif" font-size="9.00">adminGuard.js</text>
</a>
</g>
</g>
<!-- src/guards/adminGuard.js&#45;&gt;path -->
<g id="edge7" class="edge">
<title>src/guards/adminGuard.js&#45;&gt;path</title>
<path fill="none" stroke="#000000" stroke-dasharray="5,2" stroke-opacity="0.200000" d="M275.77,-33.61C315.42,-34.2 379.59,-35 435,-35 435,-35 435,-35 539,-35 598.54,-35 615.59,-31.95 672,-51 677.53,-52.87 683.14,-55.71 688.17,-58.66"/>
<polygon fill="#000000" fill-opacity="0.200000" stroke="#000000" stroke-opacity="0.200000" points="687.16,-60.51 693.37,-61.88 689.37,-56.94 687.16,-60.51"/>
</g>
<!-- src/utils/notFound.js -->
<g id="node12" class="node">
<title>src/utils/notFound.js</title>
<g id="a_node12"><a xlink:href="src/utils/notFound.js" xlink:title="notFound.js">
<path fill="#ffffcc" stroke="black" d="M564.5,-80C564.5,-80 511.5,-80 511.5,-80 508.5,-80 505.5,-77 505.5,-74 505.5,-74 505.5,-68 505.5,-68 505.5,-65 508.5,-62 511.5,-62 511.5,-62 564.5,-62 564.5,-62 567.5,-62 570.5,-65 570.5,-68 570.5,-68 570.5,-74 570.5,-74 570.5,-77 567.5,-80 564.5,-80"/>
<text text-anchor="start" x="513.5" y="-68.8" font-family="Helvetica,sans-Serif" font-size="9.00">notFound.js</text>
</a>
</g>
</g>
<!-- src/guards/adminGuard.js&#45;&gt;src/utils/notFound.js -->
<g id="edge6" class="edge">
<title>src/guards/adminGuard.js&#45;&gt;src/utils/notFound.js</title>
<path fill="none" stroke="#000000" stroke-width="2" stroke-opacity="0.200000" d="M275.68,-41.07C283.06,-42.5 290.76,-43.88 298,-45 368.67,-55.89 451.78,-63.85 499.04,-67.92"/>
<polygon fill="#000000" fill-opacity="0.200000" stroke="#000000" stroke-width="2" stroke-opacity="0.200000" points="499.02,-70.03 505.18,-68.45 499.38,-65.84 499.02,-70.03"/>
</g>
<!-- src/utils/notFound.js&#45;&gt;path -->
<g id="edge25" class="edge">
<title>src/utils/notFound.js&#45;&gt;path</title>
<path fill="none" stroke="#000000" stroke-dasharray="5,2" stroke-opacity="0.200000" d="M570.8,-71C600.31,-71 644.02,-71 673.69,-71"/>
<polygon fill="#000000" fill-opacity="0.200000" stroke="#000000" stroke-opacity="0.200000" points="673.8,-73.1 679.8,-71 673.8,-68.9 673.8,-73.1"/>
</g>
<!-- src/guards/authGuard.js -->
<g id="node13" class="node">
<title>src/guards/authGuard.js</title>
<g id="a_node13"><a xlink:href="src/guards/authGuard.js" xlink:title="authGuard.js">
<path fill="#ffffcc" stroke="black" d="M265.5,-72C265.5,-72 208.5,-72 208.5,-72 205.5,-72 202.5,-69 202.5,-66 202.5,-66 202.5,-60 202.5,-60 202.5,-57 205.5,-54 208.5,-54 208.5,-54 265.5,-54 265.5,-54 268.5,-54 271.5,-57 271.5,-60 271.5,-60 271.5,-66 271.5,-66 271.5,-69 268.5,-72 265.5,-72"/>
<text text-anchor="start" x="210.5" y="-60.8" font-family="Helvetica,sans-Serif" font-size="9.00">authGuard.js</text>
</a>
</g>
</g>
<!-- src/routers/authRouter.js -->
<g id="node14" class="node">
<title>src/routers/authRouter.js</title>
<g id="a_node14"><a xlink:href="src/routers/authRouter.js" xlink:title="authRouter.js">
<path fill="#ffffcc" stroke="black" d="M159,-132C159,-132 100,-132 100,-132 97,-132 94,-129 94,-126 94,-126 94,-120 94,-120 94,-117 97,-114 100,-114 100,-114 159,-114 159,-114 162,-114 165,-117 165,-120 165,-120 165,-126 165,-126 165,-129 162,-132 159,-132"/>
<text text-anchor="start" x="102" y="-120.8" font-family="Helvetica,sans-Serif" font-size="9.00">authRouter.js</text>
</a>
</g>
</g>
<!-- src/routers/authRouter.js&#45;&gt;src/controllers/authController.js -->
<g id="edge8" class="edge">
<title>src/routers/authRouter.js&#45;&gt;src/controllers/authController.js</title>
<path fill="none" stroke="#000000" stroke-width="2" stroke-opacity="0.200000" d="M139.1,-132.26C149.01,-142.41 166.22,-158.52 184,-168 186.56,-169.37 189.26,-170.62 192.02,-171.77"/>
<polygon fill="#000000" fill-opacity="0.200000" stroke="#000000" stroke-width="2" stroke-opacity="0.200000" points="191.42,-173.79 197.78,-173.99 192.93,-169.87 191.42,-173.79"/>
</g>
<!-- src/routers/authRouter.js&#45;&gt;src/guards/authGuard.js -->
<g id="edge9" class="edge">
<title>src/routers/authRouter.js&#45;&gt;src/guards/authGuard.js</title>
<path fill="none" stroke="#000000" stroke-width="2" stroke-opacity="0.200000" d="M162.38,-113.97C167.05,-112.22 171.72,-110.23 176,-108 180.68,-105.56 203.52,-88.14 219.63,-75.71"/>
<polygon fill="#000000" fill-opacity="0.200000" stroke="#000000" stroke-width="2" stroke-opacity="0.200000" points="220.92,-77.36 224.38,-72.03 218.35,-74.04 220.92,-77.36"/>
</g>
<!-- src/routers/reportRouter.js -->
<g id="node15" class="node">
<title>src/routers/reportRouter.js</title>
<g id="a_node15"><a xlink:href="src/routers/reportRouter.js" xlink:title="reportRouter.js">
<path fill="#ffffcc" stroke="black" d="M162,-102C162,-102 97,-102 97,-102 94,-102 91,-99 91,-96 91,-96 91,-90 91,-90 91,-87 94,-84 97,-84 97,-84 162,-84 162,-84 165,-84 168,-87 168,-90 168,-90 168,-96 168,-96 168,-99 165,-102 162,-102"/>
<text text-anchor="start" x="99" y="-90.8" font-family="Helvetica,sans-Serif" font-size="9.00">reportRouter.js</text>
</a>
</g>
</g>
<!-- src/routers/reportRouter.js&#45;&gt;src/controllers/reportController.js -->
<g id="edge10" class="edge">
<title>src/routers/reportRouter.js&#45;&gt;src/controllers/reportController.js</title>
<path fill="none" stroke="#000000" stroke-width="2" stroke-opacity="0.200000" d="M168.14,-101.85C171.04,-103.55 173.72,-105.58 176,-108 185.47,-118.04 174.34,-128.14 184,-138 184.7,-138.71 185.43,-139.39 186.19,-140.04"/>
<polygon fill="#000000" fill-opacity="0.200000" stroke="#000000" stroke-width="2" stroke-opacity="0.200000" points="185.45,-142.09 191.55,-143.87 187.89,-138.68 185.45,-142.09"/>
</g>
<!-- src/routers/reportRouter.js&#45;&gt;src/guards/adminGuard.js -->
<g id="edge11" class="edge">
<title>src/routers/reportRouter.js&#45;&gt;src/guards/adminGuard.js</title>
<path fill="none" stroke="#000000" stroke-width="2" stroke-opacity="0.200000" d="M168.14,-84.15C171.04,-82.45 173.72,-80.42 176,-78 185.47,-67.96 174.34,-57.86 184,-48 186.51,-45.44 189.42,-43.31 192.56,-41.54"/>
<polygon fill="#000000" fill-opacity="0.200000" stroke="#000000" stroke-width="2" stroke-opacity="0.200000" points="193.93,-43.21 198.43,-38.73 192.12,-39.43 193.93,-43.21"/>
</g>
<!-- src/routers/reportRouter.js&#45;&gt;src/guards/authGuard.js -->
<g id="edge12" class="edge">
<title>src/routers/reportRouter.js&#45;&gt;src/guards/authGuard.js</title>
<path fill="none" stroke="#000000" stroke-width="2" stroke-opacity="0.200000" d="M162.15,-84C173.42,-80.8 186.23,-77.15 197.97,-73.81"/>
<polygon fill="#000000" fill-opacity="0.200000" stroke="#000000" stroke-width="2" stroke-opacity="0.200000" points="198.81,-75.76 204,-72.1 197.66,-71.72 198.81,-75.76"/>
</g>
<!-- src/routers/router.js -->
<g id="node16" class="node">
<title>src/routers/router.js</title>
<g id="a_node16"><a xlink:href="src/routers/router.js" xlink:title="router.js">
<path fill="#ffffcc" stroke="black" d="M72,-117C72,-117 30,-117 30,-117 27,-117 24,-114 24,-111 24,-111 24,-105 24,-105 24,-102 27,-99 30,-99 30,-99 72,-99 72,-99 75,-99 78,-102 78,-105 78,-105 78,-111 78,-111 78,-114 75,-117 72,-117"/>
<text text-anchor="start" x="34" y="-105.8" font-family="Helvetica,sans-Serif" font-size="9.00">router.js</text>
</a>
</g>
</g>
<!-- src/routers/router.js&#45;&gt;src/utils/notFound.js -->
<g id="edge13" class="edge">
<title>src/routers/router.js&#45;&gt;src/utils/notFound.js</title>
<path fill="none" stroke="#000000" stroke-width="2" stroke-opacity="0.200000" d="M58.72,-117.11C76.24,-140 125.99,-199.56 184,-221 228.19,-237.33 242.92,-222.72 290,-221 375.06,-217.89 421.03,-267.4 481,-207 499.99,-187.88 472.33,-107.17 489,-86 491.82,-82.42 495.49,-79.67 499.55,-77.57"/>
<polygon fill="#000000" fill-opacity="0.200000" stroke="#000000" stroke-width="2" stroke-opacity="0.200000" points="500.6,-79.4 505.27,-75.09 498.93,-75.55 500.6,-79.4"/>
</g>
<!-- src/routers/router.js&#45;&gt;src/routers/authRouter.js -->
<g id="edge14" class="edge">
<title>src/routers/router.js&#45;&gt;src/routers/authRouter.js</title>
<path fill="none" stroke="#000000" stroke-width="2" stroke-opacity="0.200000" d="M78.33,-113.16C81.46,-113.78 84.71,-114.41 87.99,-115.06"/>
<polygon fill="#000000" fill-opacity="0.200000" stroke="#000000" stroke-width="2" stroke-opacity="0.200000" points="87.59,-117.12 93.88,-116.21 88.4,-113 87.59,-117.12"/>
</g>
<!-- src/routers/router.js&#45;&gt;src/routers/reportRouter.js -->
<g id="edge15" class="edge">
<title>src/routers/router.js&#45;&gt;src/routers/reportRouter.js</title>
<path fill="none" stroke="#000000" stroke-width="2" stroke-opacity="0.200000" d="M78.33,-102.84C80.49,-102.41 82.7,-101.98 84.94,-101.54"/>
<polygon fill="#000000" fill-opacity="0.200000" stroke="#000000" stroke-width="2" stroke-opacity="0.200000" points="85.42,-103.59 90.9,-100.37 84.61,-99.47 85.42,-103.59"/>
</g>
<!-- src/routers/userRouter.js -->
<g id="node17" class="node">
<title>src/routers/userRouter.js</title>
<g id="a_node17"><a xlink:href="src/routers/userRouter.js" xlink:title="userRouter.js">
<path fill="#ffffcc" stroke="black" d="M159,-72C159,-72 100,-72 100,-72 97,-72 94,-69 94,-66 94,-66 94,-60 94,-60 94,-57 97,-54 100,-54 100,-54 159,-54 159,-54 162,-54 165,-57 165,-60 165,-60 165,-66 165,-66 165,-69 162,-72 159,-72"/>
<text text-anchor="start" x="102" y="-60.8" font-family="Helvetica,sans-Serif" font-size="9.00">userRouter.js</text>
</a>
</g>
</g>
<!-- src/routers/router.js&#45;&gt;src/routers/userRouter.js -->
<g id="edge16" class="edge">
<title>src/routers/router.js&#45;&gt;src/routers/userRouter.js</title>
<path fill="none" stroke="#000000" stroke-width="2" stroke-opacity="0.200000" d="M62.37,-98.75C69.92,-92.34 80.61,-83.92 91,-78 93.01,-76.86 95.12,-75.76 97.27,-74.71"/>
<polygon fill="#000000" fill-opacity="0.200000" stroke="#000000" stroke-width="2" stroke-opacity="0.200000" points="98.46,-76.48 103.04,-72.08 96.71,-72.66 98.46,-76.48"/>
</g>
<!-- src/routers/userRouter.js&#45;&gt;src/controllers/userController.js -->
<g id="edge17" class="edge">
<title>src/routers/userRouter.js&#45;&gt;src/controllers/userController.js</title>
<path fill="none" stroke="#000000" stroke-width="2" stroke-opacity="0.200000" d="M165.26,-70.62C169.21,-72.55 172.92,-74.97 176,-78 183.72,-85.59 176.6,-93.1 184,-101 187.84,-105.1 192.56,-108.46 197.58,-111.22"/>
<polygon fill="#000000" fill-opacity="0.200000" stroke="#000000" stroke-width="2" stroke-opacity="0.200000" points="196.81,-113.18 203.12,-113.98 198.69,-109.42 196.81,-113.18"/>
</g>
<!-- src/routers/userRouter.js&#45;&gt;src/guards/adminGuard.js -->
<g id="edge18" class="edge">
<title>src/routers/userRouter.js&#45;&gt;src/guards/adminGuard.js</title>
<path fill="none" stroke="#000000" stroke-width="2" stroke-opacity="0.200000" d="M162.15,-54C173.42,-50.8 186.23,-47.15 197.97,-43.81"/>
<polygon fill="#000000" fill-opacity="0.200000" stroke="#000000" stroke-width="2" stroke-opacity="0.200000" points="198.81,-45.76 204,-42.1 197.66,-41.72 198.81,-45.76"/>
</g>
<!-- src/routers/userRouter.js&#45;&gt;src/guards/authGuard.js -->
<g id="edge19" class="edge">
<title>src/routers/userRouter.js&#45;&gt;src/guards/authGuard.js</title>
<path fill="none" stroke="#000000" stroke-width="2" stroke-opacity="0.200000" d="M165.04,-63C175,-63 185.94,-63 196.18,-63"/>
<polygon fill="#000000" fill-opacity="0.200000" stroke="#000000" stroke-width="2" stroke-opacity="0.200000" points="196.46,-65.1 202.46,-63 196.46,-60.9 196.46,-65.1"/>
</g>
<!-- src/utils/sessionCount.js&#45;&gt;src/utils/database.js -->
<g id="edge26" class="edge">
<title>src/utils/sessionCount.js&#45;&gt;src/utils/database.js</title>
<path fill="none" stroke="#000000" stroke-width="2" stroke-opacity="0.200000" d="M579.03,-101C581.14,-101 583.26,-101 585.37,-101"/>
<polygon fill="#000000" fill-opacity="0.200000" stroke="#000000" stroke-width="2" stroke-opacity="0.200000" points="585.62,-103.1 591.62,-101 585.62,-98.9 585.62,-103.1"/>
</g>
</g>
</svg>
